M48
; DRILL file KiCad 10.0.4 date 2026-08-13T17:06:07
; FORMAT={-:-/ absolute / metric / decimal}
; #@! TF.CreationDate,2026-08-13T17:06:07+01:00
; #@! TF.GenerationSoftware,Kicad,Pcbnew,10.0.4
; #@! TF.FileFunction,Plated,1,2,PTH
FMAT,2
METRIC
; #@! TA.AperFunction,Plated,PTH,ComponentDrill
T1C0.700
; #@! TA.AperFunction,Plated,PTH,ComponentDrill
T2C0.750
; #@! TA.AperFunction,Plated,PTH,ComponentDrill
T3C0.762
; #@! TA.AperFunction,Plated,PTH,ComponentDrill
T4C0.800
; #@! TA.AperFunction,Plated,PTH,ComponentDrill
T5C0.864
; #@! TA.AperFunction,Plated,PTH,ComponentDrill
T6C1.000
; #@! TA.AperFunction,Plated,PTH,ComponentDrill
T7C1.016
; #@! TA.AperFunction,Plated,PTH,ComponentDrill
T8C1.100
; #@! TA.AperFunction,Plated,PTH,ViaDrill
T9C1.200
; #@! TA.AperFunction,Plated,PTH,ComponentDrill
T10C1.200
; #@! TA.AperFunction,Plated,PTH,ComponentDrill
T11C1.220
; #@! TA.AperFunction,Plated,PTH,ComponentDrill
T12C1.400
; #@! TA.AperFunction,Plated,PTH,ComponentDrill
T13C3.175
%
G90
G05
T1
X45.72Y-60.706
X52.832Y-65.786
X52.832Y-68.326
X52.832Y-70.866
X52.832Y-75.946
X52.832Y-78.486
X52.832Y-81.026
X52.832Y-83.566
X52.832Y-86.106
X52.832Y-88.646
X52.832Y-93.726
X52.832Y-96.266
X52.832Y-98.806
X52.832Y-101.346
X52.832Y-103.886
X52.832Y-106.426
X58.42Y-60.706
X60.96Y-58.166
X65.532Y-65.786
X65.532Y-68.326
X65.532Y-70.866
X65.532Y-75.946
X65.532Y-78.486
X65.532Y-81.026
X65.532Y-83.566
X65.532Y-86.106
X65.532Y-88.646
X65.532Y-93.726
X65.532Y-96.266
X65.532Y-98.806
X65.532Y-101.346
X65.532Y-103.886
X65.532Y-106.426
X73.66Y-58.166
X76.454Y-58.166
X78.232Y-68.58
X78.232Y-71.12
X78.232Y-73.66
X78.232Y-81.28
X78.232Y-83.82
X78.232Y-88.9
X78.232Y-93.98
X78.232Y-103.124
X78.232Y-108.204
X89.154Y-58.166
X90.932Y-68.58
X90.932Y-71.12
X90.932Y-73.66
X90.932Y-81.28
X90.932Y-83.82
X90.932Y-88.9
X90.932Y-93.98
X90.932Y-103.124
X90.932Y-108.204
X92.71Y-36.322
X92.71Y-49.022
X95.25Y-36.322
X95.25Y-49.022
X105.41Y-36.322
X105.41Y-49.022
X112.014Y-93.726
X112.014Y-96.266
X112.014Y-98.806
X112.014Y-101.346
X112.014Y-103.886
X112.014Y-106.426
X112.014Y-108.966
X112.014Y-111.506
X124.714Y-93.726
X124.714Y-96.266
X124.714Y-98.806
X124.714Y-101.346
X124.714Y-103.886
X124.714Y-106.426
X124.714Y-108.966
X124.714Y-111.506
X127.254Y-93.726
X127.254Y-96.266
X127.254Y-98.806
X127.254Y-101.346
X127.254Y-103.886
X127.254Y-106.426
X127.254Y-108.966
X127.254Y-111.506
X127.254Y-114.046
X127.254Y-116.586
X137.414Y-128.016
X137.414Y-130.556
X139.954Y-93.726
X139.954Y-96.266
X139.954Y-98.806
X139.954Y-101.346
X139.954Y-103.886
X139.954Y-106.426
X139.954Y-108.966
X139.954Y-111.506
X139.954Y-114.046
X139.954Y-116.586
X143.51Y-94.996
X143.51Y-97.536
X143.51Y-100.076
X143.51Y-102.616
X143.51Y-105.156
X143.51Y-107.696
X150.114Y-128.016
X150.114Y-130.556
X156.21Y-94.996
X156.21Y-97.536
X156.21Y-100.076
X156.21Y-102.616
X156.21Y-105.156
X156.21Y-107.696
X178.746Y-65.757
X178.746Y-80.957
X205.994Y-100.076
X205.994Y-102.616
X205.994Y-105.156
X205.994Y-107.696
X205.994Y-110.236
X205.994Y-112.776
X205.994Y-115.316
X205.994Y-117.856
X205.994Y-120.396
X218.694Y-100.076
X218.694Y-102.616
X218.694Y-105.156
X218.694Y-107.696
X218.694Y-110.236
X218.694Y-112.776
X218.694Y-115.316
X218.694Y-117.856
X218.694Y-120.396
X225.044Y-105.156
X225.044Y-107.696
X231.47Y-67.45
X231.648Y-41.656
X231.648Y-44.196
X231.648Y-46.736
X237.744Y-105.156
X237.744Y-107.696
X244.17Y-67.45
X244.348Y-41.656
X244.348Y-44.196
X244.348Y-46.736
T2
X52.146Y-63.246
X54.762Y-63.246
X57.404Y-63.246
X60.96Y-63.246
X63.602Y-63.246
X66.218Y-63.246
X78.054Y-78.232
X80.67Y-78.232
X83.312Y-78.232
X228.374Y-67.356
X228.374Y-69.972
X228.374Y-72.614
X234.772Y-37.846
X237.388Y-37.846
X240.03Y-37.846
T3
X235.204Y-51.816
X235.204Y-55.626
X235.204Y-60.452
X243.84Y-51.816
X243.84Y-55.626
X243.84Y-60.452
T4
X45.72Y-58.166
X48.514Y-118.618
X48.514Y-122.936
X48.514Y-125.476
X48.514Y-128.016
X48.514Y-130.556
X48.514Y-133.096
X48.514Y-135.636
X48.514Y-138.176
X48.514Y-140.716
X52.832Y-73.406
X52.832Y-91.186
X53.594Y-32.258
X56.134Y-122.936
X56.134Y-125.476
X56.134Y-128.016
X56.134Y-130.556
X56.134Y-133.096
X56.134Y-135.636
X56.134Y-138.176
X56.134Y-140.716
X58.42Y-58.166
X58.674Y-122.936
X58.674Y-125.476
X58.674Y-128.016
X58.674Y-130.556
X58.674Y-133.096
X58.674Y-135.636
X58.674Y-138.176
X58.674Y-140.716
X58.674Y-145.034
X60.96Y-60.706
X61.214Y-118.618
X65.532Y-73.406
X65.532Y-91.186
X66.294Y-122.936
X66.294Y-125.476
X66.294Y-128.016
X66.294Y-130.556
X66.294Y-133.096
X66.294Y-135.636
X66.294Y-138.176
X66.294Y-140.716
X68.072Y-68.326
X68.072Y-70.866
X68.072Y-73.406
X68.072Y-75.946
X68.072Y-78.486
X68.072Y-81.026
X68.072Y-83.566
X68.072Y-86.106
X68.072Y-88.646
X68.834Y-46.482
X68.834Y-118.618
X68.834Y-122.936
X68.834Y-125.476
X68.834Y-128.016
X68.834Y-130.556
X68.834Y-133.096
X68.834Y-135.636
X68.834Y-138.176
X68.834Y-140.716
X71.374Y-145.034
X73.66Y-60.706
X75.692Y-68.326
X75.692Y-70.866
X75.692Y-73.406
X75.692Y-75.946
X75.692Y-78.486
X75.692Y-81.026
X75.692Y-83.566
X75.692Y-86.106
X75.692Y-88.646
X76.454Y-60.706
X76.454Y-63.246
X76.454Y-65.786
X76.454Y-122.936
X76.454Y-125.476
X76.454Y-128.016
X76.454Y-130.556
X76.454Y-133.096
X76.454Y-135.636
X76.454Y-138.176
X76.454Y-140.716
X78.232Y-76.2
X78.232Y-86.36
X78.232Y-91.44
X78.232Y-105.664
X78.232Y-110.744
X78.232Y-113.284
X78.994Y-122.936
X78.994Y-125.476
X78.994Y-128.016
X78.994Y-130.556
X78.994Y-133.096
X78.994Y-135.636
X78.994Y-138.176
X78.994Y-140.716
X78.994Y-145.034
X81.534Y-118.618
X84.836Y-32.258
X86.614Y-122.936
X86.614Y-125.476
X86.614Y-128.016
X86.614Y-130.556
X86.614Y-133.096
X86.614Y-135.636
X86.614Y-138.176
X86.614Y-140.716
X89.154Y-60.706
X89.154Y-63.246
X89.154Y-65.786
X89.154Y-118.618
X89.154Y-122.936
X89.154Y-125.476
X89.154Y-128.016
X89.154Y-130.556
X89.154Y-133.096
X89.154Y-135.636
X89.154Y-138.176
X89.154Y-140.716
X90.932Y-76.2
X90.932Y-86.36
X90.932Y-91.44
X90.932Y-105.664
X90.932Y-110.744
X90.932Y-113.284
X91.44Y-59.616
X91.44Y-64.516
X91.694Y-145.034
X96.774Y-122.936
X96.774Y-125.476
X96.774Y-128.016
X96.774Y-130.556
X96.774Y-133.096
X96.774Y-135.636
X96.774Y-138.176
X96.774Y-140.716
X97.79Y-36.322
X97.79Y-49.022
X99.314Y-122.936
X99.314Y-125.476
X99.314Y-128.016
X99.314Y-130.556
X99.314Y-133.096
X99.314Y-135.636
X99.314Y-138.176
X99.314Y-140.716
X99.314Y-145.034
X100.33Y-36.322
X100.33Y-49.022
X100.94Y-57.016
X100.94Y-66.716
X101.854Y-118.618
X102.87Y-36.322
X102.87Y-49.022
X106.934Y-122.936
X106.934Y-125.476
X106.934Y-128.016
X106.934Y-130.556
X106.934Y-133.096
X106.934Y-135.636
X106.934Y-138.176
X106.934Y-140.716
X107.95Y-36.322
X107.95Y-49.022
X107.95Y-51.308
X107.95Y-64.008
X109.474Y-118.618
X109.474Y-122.936
X109.474Y-125.476
X109.474Y-128.016
X109.474Y-130.556
X109.474Y-133.096
X109.474Y-135.636
X109.474Y-138.176
X109.474Y-140.716
X110.49Y-51.308
X110.49Y-64.008
X112.014Y-145.034
X113.03Y-40.386
X113.03Y-42.926
X113.03Y-45.466
X113.03Y-48.006
X113.03Y-50.546
X113.03Y-53.086
X113.03Y-55.626
X113.03Y-58.166
X113.03Y-60.706
X113.03Y-63.246
X113.03Y-65.786
X113.03Y-68.326
X113.03Y-70.866
X113.03Y-73.406
X113.03Y-75.946
X113.03Y-78.486
X113.03Y-81.026
X113.03Y-83.566
X113.03Y-86.106
X113.03Y-88.646
X117.094Y-122.936
X117.094Y-125.476
X117.094Y-128.016
X117.094Y-130.556
X117.094Y-133.096
X117.094Y-135.636
X117.094Y-138.176
X117.094Y-140.716
X119.634Y-122.936
X119.634Y-125.476
X119.634Y-128.016
X119.634Y-130.556
X119.634Y-133.096
X119.634Y-135.636
X119.634Y-138.176
X119.634Y-140.716
X119.634Y-145.034
X122.174Y-118.618
X127.254Y-122.936
X127.254Y-125.476
X127.254Y-128.016
X127.254Y-130.556
X127.254Y-133.096
X127.254Y-135.636
X127.254Y-138.176
X127.254Y-140.716
X128.27Y-40.386
X128.27Y-42.926
X128.27Y-45.466
X128.27Y-48.006
X128.27Y-50.546
X128.27Y-53.086
X128.27Y-55.626
X128.27Y-58.166
X128.27Y-60.706
X128.27Y-63.246
X128.27Y-65.786
X128.27Y-68.326
X128.27Y-70.866
X128.27Y-73.406
X128.27Y-75.946
X128.27Y-78.486
X128.27Y-81.026
X128.27Y-83.566
X128.27Y-86.106
X128.27Y-88.646
X132.334Y-145.034
X135.89Y-40.386
X135.89Y-42.926
X135.89Y-45.466
X135.89Y-48.006
X135.89Y-50.546
X135.89Y-53.086
X135.89Y-55.626
X135.89Y-58.166
X135.89Y-65.786
X135.89Y-68.326
X135.89Y-70.866
X135.89Y-73.406
X135.89Y-75.946
X135.89Y-78.486
X135.89Y-81.026
X135.89Y-83.566
X137.414Y-122.936
X137.414Y-125.476
X143.51Y-40.386
X143.51Y-42.926
X143.51Y-45.466
X143.51Y-48.006
X143.51Y-50.546
X143.51Y-53.086
X143.51Y-55.626
X143.51Y-58.166
X143.51Y-65.786
X143.51Y-68.326
X143.51Y-70.866
X143.51Y-73.406
X143.51Y-75.946
X143.51Y-78.486
X143.51Y-81.026
X143.51Y-83.566
X145.034Y-117.094
X150.114Y-122.936
X150.114Y-125.476
X150.876Y-40.386
X150.876Y-42.926
X150.876Y-45.466
X150.876Y-48.006
X150.876Y-50.546
X150.876Y-53.086
X150.876Y-55.626
X150.876Y-58.166
X151.13Y-65.786
X151.13Y-68.326
X151.13Y-70.866
X151.13Y-73.406
X151.13Y-75.946
X151.13Y-78.486
X151.13Y-81.026
X151.384Y-145.034
X153.924Y-122.936
X153.924Y-125.476
X153.924Y-128.016
X153.924Y-130.556
X153.924Y-133.096
X153.924Y-135.636
X153.924Y-138.176
X153.924Y-140.716
X157.734Y-117.094
X158.496Y-40.386
X158.496Y-42.926
X158.496Y-45.466
X158.496Y-48.006
X158.496Y-50.546
X158.496Y-53.086
X158.496Y-55.626
X158.496Y-58.166
X158.75Y-65.786
X158.75Y-68.326
X158.75Y-70.866
X158.75Y-73.406
X158.75Y-75.946
X158.75Y-78.486
X158.75Y-81.026
X159.004Y-94.996
X159.004Y-97.536
X159.004Y-100.076
X159.004Y-102.616
X159.004Y-105.156
X159.004Y-107.696
X159.004Y-110.236
X159.004Y-112.776
X160.274Y-117.094
X161.29Y-36.576
X161.544Y-122.936
X161.544Y-125.476
X161.544Y-128.016
X161.544Y-130.556
X161.544Y-133.096
X161.544Y-135.636
X161.544Y-138.176
X161.544Y-140.716
X164.084Y-122.936
X164.084Y-125.476
X164.084Y-128.016
X164.084Y-130.556
X164.084Y-133.096
X164.084Y-135.636
X164.084Y-138.176
X164.084Y-140.716
X164.084Y-145.034
X166.37Y-40.386
X166.37Y-42.926
X166.37Y-45.466
X166.37Y-48.006
X166.37Y-50.546
X166.37Y-53.086
X166.37Y-55.626
X166.37Y-58.166
X166.37Y-65.786
X166.37Y-68.326
X166.37Y-70.866
X166.37Y-73.406
X166.37Y-75.946
X166.37Y-78.486
X166.37Y-81.026
X166.624Y-94.996
X166.624Y-97.536
X166.624Y-100.076
X166.624Y-102.616
X166.624Y-105.156
X166.624Y-107.696
X166.624Y-110.236
X166.624Y-112.776
X166.624Y-145.034
X169.164Y-94.996
X169.164Y-97.536
X169.164Y-100.076
X169.164Y-102.616
X169.164Y-105.156
X169.164Y-107.696
X169.164Y-110.236
X169.164Y-112.776
X171.704Y-122.936
X171.704Y-125.476
X171.704Y-128.016
X171.704Y-130.556
X171.704Y-133.096
X171.704Y-135.636
X171.704Y-138.176
X171.704Y-140.716
X172.974Y-117.094
X173.99Y-36.576
X173.99Y-40.386
X173.99Y-42.926
X173.99Y-45.466
X173.99Y-48.006
X173.99Y-50.546
X173.99Y-53.086
X173.99Y-55.626
X173.99Y-58.166
X173.99Y-65.786
X173.99Y-68.326
X173.99Y-70.866
X173.99Y-73.406
X173.99Y-75.946
X173.99Y-78.486
X173.99Y-81.026
X174.244Y-122.936
X174.244Y-125.476
X174.244Y-128.016
X174.244Y-130.556
X174.244Y-133.096
X174.244Y-135.636
X174.244Y-138.176
X174.244Y-140.716
X175.514Y-117.094
X176.784Y-94.996
X176.784Y-97.536
X176.784Y-100.076
X176.784Y-102.616
X176.784Y-105.156
X176.784Y-107.696
X176.784Y-110.236
X176.784Y-112.776
X179.324Y-94.996
X179.324Y-97.536
X179.324Y-100.076
X179.324Y-102.616
X179.324Y-105.156
X179.324Y-107.696
X179.324Y-110.236
X179.324Y-112.776
X179.324Y-145.034
X181.61Y-40.386
X181.61Y-42.926
X181.61Y-45.466
X181.61Y-48.006
X181.61Y-50.546
X181.61Y-53.086
X181.61Y-55.626
X181.61Y-58.166
X181.61Y-60.706
X181.61Y-63.246
X181.61Y-65.786
X181.61Y-68.326
X181.61Y-70.866
X181.61Y-73.406
X181.61Y-75.946
X181.61Y-78.486
X181.61Y-81.026
X181.61Y-83.566
X181.61Y-86.106
X181.61Y-88.646
X181.61Y-145.034
X181.864Y-122.936
X181.864Y-125.476
X181.864Y-128.016
X181.864Y-130.556
X181.864Y-133.096
X181.864Y-135.636
X181.864Y-138.176
X181.864Y-140.716
X184.404Y-122.936
X184.404Y-125.476
X184.404Y-128.016
X184.404Y-130.556
X184.404Y-133.096
X184.404Y-135.636
X184.404Y-138.176
X184.404Y-140.716
X186.944Y-94.996
X186.944Y-97.536
X186.944Y-100.076
X186.944Y-102.616
X186.944Y-105.156
X186.944Y-107.696
X186.944Y-110.236
X186.944Y-112.776
X188.214Y-117.094
X189.484Y-94.996
X189.484Y-97.536
X189.484Y-100.076
X189.484Y-102.616
X189.484Y-105.156
X189.484Y-107.696
X189.484Y-110.236
X189.484Y-112.776
X190.754Y-117.094
X192.024Y-122.936
X192.024Y-125.476
X192.024Y-128.016
X192.024Y-130.556
X192.024Y-133.096
X192.024Y-135.636
X192.024Y-138.176
X192.024Y-140.716
X194.31Y-145.034
X196.85Y-40.386
X196.85Y-42.926
X196.85Y-45.466
X196.85Y-48.006
X196.85Y-50.546
X196.85Y-53.086
X196.85Y-55.626
X196.85Y-58.166
X196.85Y-60.706
X196.85Y-63.246
X196.85Y-65.786
X196.85Y-68.326
X196.85Y-70.866
X196.85Y-73.406
X196.85Y-75.946
X196.85Y-78.486
X196.85Y-81.026
X196.85Y-83.566
X196.85Y-86.106
X196.85Y-88.646
X196.85Y-145.034
X197.104Y-94.996
X197.104Y-97.536
X197.104Y-100.076
X197.104Y-102.616
X197.104Y-105.156
X197.104Y-107.696
X197.104Y-110.236
X197.104Y-112.776
X203.454Y-117.094
X204.47Y-40.386
X204.47Y-42.926
X204.47Y-45.466
X204.47Y-48.006
X204.47Y-50.546
X204.47Y-53.086
X204.47Y-55.626
X204.47Y-58.166
X204.47Y-60.706
X204.47Y-63.246
X204.47Y-65.786
X204.47Y-68.326
X204.47Y-70.866
X204.47Y-73.406
X205.74Y-84.836
X205.994Y-122.936
X205.994Y-125.476
X205.994Y-128.016
X205.994Y-130.556
X205.994Y-133.096
X209.55Y-145.034
X209.804Y-36.576
X218.44Y-84.836
X218.694Y-122.936
X218.694Y-125.476
X218.694Y-128.016
X218.694Y-130.556
X218.694Y-133.096
X219.71Y-40.386
X219.71Y-42.926
X219.71Y-45.466
X219.71Y-48.006
X219.71Y-50.546
X219.71Y-53.086
X219.71Y-55.626
X219.71Y-58.166
X219.71Y-60.706
X219.71Y-63.246
X219.71Y-65.786
X219.71Y-68.326
X219.71Y-70.866
X219.71Y-73.406
X222.504Y-36.576
X225.044Y-100.076
X225.044Y-102.616
X226.952Y-123.214
X231.435Y-72.62
X231.435Y-75.245
X231.47Y-64.9
X231.47Y-77.845
X231.505Y-70.07
X231.505Y-80.395
X231.505Y-82.72
X233.68Y-95.504
X237.744Y-100.076
X237.744Y-102.616
X239.652Y-123.214
X244.135Y-72.62
X244.135Y-75.245
X244.17Y-64.9
X244.17Y-77.845
X244.205Y-70.07
X244.205Y-80.395
X244.205Y-82.72
X246.38Y-95.504
X250.018Y-132.412
X250.018Y-145.112
T5
X72.39Y-97.536
X74.93Y-97.536
X77.47Y-97.536
X80.01Y-97.536
X82.55Y-97.536
T6
X95.758Y-74.93
X95.92Y-85.598
X100.838Y-69.85
X101.0Y-80.518
X101.0Y-90.678
X105.918Y-74.93
X133.096Y-40.386
X133.096Y-48.006
X133.096Y-55.636
X243.725Y-85.26
X243.725Y-92.88
X251.345Y-85.26
X251.345Y-92.88
T7
X45.084Y-41.058
X45.084Y-50.912
X95.192Y-53.166
X100.33Y-53.086
X209.55Y-89.662
X212.09Y-89.662
X214.63Y-89.662
X217.17Y-89.662
X219.71Y-89.662
X222.25Y-89.662
X224.79Y-89.662
X227.33Y-89.662
T8
X247.142Y-123.271
X249.682Y-123.271
X252.222Y-123.271
T9
X45.085Y-79.326
X45.31Y-100.38
X45.4Y-112.07
X48.396Y-91.31
X49.6Y-59.49
X52.31Y-114.8
X52.31Y-122.96
X52.39Y-118.65
X54.055Y-58.01
X55.37Y-60.89
X56.08Y-145.12
X56.65Y-74.3
X58.02Y-84.2
X58.51Y-68.44
X62.98Y-83.04
X63.02Y-72.15
X64.28Y-118.71
X64.9Y-60.84
X66.294Y-145.034
X67.42Y-58.16
X70.0Y-69.47
X70.04Y-79.78
X70.04Y-90.12
X70.09Y-62.02
X70.12Y-107.21
X70.54Y-103.27
X70.66Y-116.03
X72.02Y-78.49
X72.54Y-108.83
X73.3Y-115.96
X73.37Y-69.68
X73.91Y-118.65
X76.454Y-145.121
X80.11Y-59.48
X80.76Y-65.241
X80.76Y-75.34
X80.82Y-104.83
X80.96Y-114.16
X81.22Y-85.514
X82.02Y-103.28
X82.02Y-124.12
X82.05Y-111.49
X82.64Y-92.57
X83.35Y-82.47
X83.46Y-100.21
X83.97Y-110.01
X85.2Y-58.22
X85.35Y-107.77
X85.84Y-93.67
X85.87Y-72.2
X86.007Y-85.08
X86.02Y-114.65
X86.04Y-67.02
X86.614Y-145.034
X87.93Y-113.98
X88.24Y-92.95
X88.3Y-100.82
X92.31Y-98.11
X93.51Y-86.12
X94.11Y-111.55
X94.75Y-90.05
X95.38Y-68.4
X96.6Y-81.2
X96.774Y-145.034
X96.8Y-117.17
X98.05Y-111.51
X98.62Y-79.96
X99.23Y-117.146
X100.476Y-107.15
X101.146Y-115.75
X101.7Y-108.761
X101.79Y-113.51
X103.73Y-112.8
X104.84Y-53.106
X104.85Y-55.64
X105.62Y-115.18
X106.16Y-87.71
X106.26Y-83.61
X106.29Y-89.92
X106.29Y-111.42
X106.86Y-102.11
X106.96Y-145.12
X107.93Y-45.42
X108.075Y-83.489
X108.1Y-114.59
X108.94Y-111.58
X109.66Y-73.452
X110.594Y-58.818
X110.68Y-114.59
X111.18Y-36.23
X112.66Y-134.35
X112.7Y-118.69
X112.71Y-136.95
X115.18Y-112.09
X115.76Y-89.88
X116.51Y-69.64
X116.51Y-88.0
X117.09Y-66.94
X117.094Y-145.034
X117.36Y-60.65
X117.36Y-63.27
X117.45Y-53.07
X117.45Y-58.11
X117.47Y-41.02
X117.47Y-55.62
X117.49Y-50.55
X117.586Y-110.27
X117.78Y-107.75
X118.94Y-99.59
X119.3Y-49.22
X119.56Y-104.03
X120.96Y-101.46
X121.27Y-50.36
X121.43Y-97.61
X121.44Y-129.3
X121.523Y-131.88
X121.79Y-95.02
X122.37Y-77.29
X122.5Y-57.51
X122.67Y-45.44
X123.63Y-61.38
X123.73Y-87.51
X123.834Y-90.498
X124.25Y-84.37
X124.328Y-34.748
X124.39Y-41.58
X124.77Y-114.04
X126.96Y-32.615
X127.254Y-145.034
X129.43Y-28.12
X129.74Y-125.45
X129.82Y-123.0
X130.27Y-64.45
X130.36Y-131.87
X130.76Y-42.89
X131.0Y-103.86
X131.34Y-29.41
X131.36Y-45.36
X131.49Y-34.17
X131.65Y-128.14
X131.67Y-101.26
X131.73Y-51.88
X132.27Y-98.92
X132.87Y-96.3
X133.06Y-58.07
X133.06Y-60.66
X133.61Y-139.32
X133.94Y-30.01
X134.13Y-88.75
X134.3Y-130.63
X134.55Y-93.73
X134.62Y-145.034
X134.63Y-63.31
X134.85Y-116.51
X134.874Y-140.97
X135.077Y-36.65
X135.23Y-96.28
X136.09Y-98.8
X136.61Y-101.33
X136.82Y-110.26
X137.288Y-63.19
X137.47Y-133.78
X137.55Y-137.59
X139.03Y-34.55
X139.709Y-40.436
X139.71Y-47.93
X139.71Y-62.641
X139.74Y-81.05
X139.954Y-143.256
X140.06Y-56.24
X140.091Y-119.189
X140.15Y-74.72
X140.172Y-76.901
X140.36Y-54.31
X140.96Y-35.975
X141.111Y-50.32
X141.95Y-93.69
X142.36Y-147.01
X142.422Y-119.031
X143.503Y-37.58
X144.38Y-128.02
X144.97Y-120.99
X145.413Y-56.842
X145.473Y-109.503
X145.56Y-85.37
X145.6Y-77.26
X145.68Y-134.964
X145.85Y-149.08
X146.18Y-129.45
X146.81Y-101.48
X146.83Y-106.98
X146.85Y-103.76
X146.98Y-132.49
X147.29Y-32.73
X147.34Y-34.96
X148.24Y-120.35
X148.733Y-105.253
X150.37Y-32.03
X150.433Y-60.703
X150.577Y-35.67
X150.77Y-120.42
X151.27Y-84.22
X151.85Y-109.55
X151.87Y-107.64
X151.92Y-100.02
X151.94Y-105.22
X151.96Y-102.57
X152.595Y-112.75
X153.05Y-83.04
X153.56Y-29.32
X153.6Y-49.236
X153.67Y-77.22
X153.67Y-85.42
X153.71Y-31.82
X153.798Y-95.543
X154.15Y-69.59
X154.25Y-63.35
X154.32Y-74.64
X154.47Y-110.3
X154.78Y-41.76
X154.92Y-71.98
X154.96Y-26.47
X155.16Y-113.95
X155.42Y-38.96
X158.664Y-83.551
X160.568Y-59.418
X160.67Y-69.57
X162.07Y-98.82
X162.54Y-65.216
X162.67Y-108.24
X163.0Y-40.15
X163.07Y-49.3
X163.153Y-55.684
X163.55Y-73.44
X164.08Y-117.12
X166.25Y-83.47
X166.8Y-33.38
X167.33Y-119.19
X167.858Y-126.06
X168.258Y-74.908
X168.52Y-122.43
X168.79Y-35.34
X169.04Y-119.67
X169.17Y-67.06
X169.3Y-70.916
X169.76Y-55.5
X169.79Y-68.876
X170.04Y-81.0
X170.51Y-51.82
X170.52Y-46.75
X170.57Y-77.86
X170.94Y-88.63
X172.81Y-89.33
X172.93Y-63.39
X173.23Y-32.536
X173.57Y-111.48
X174.102Y-84.03
X174.12Y-113.821
X175.18Y-32.46
X176.04Y-120.92
X176.68Y-125.44
X177.73Y-32.54
X177.86Y-76.54
X178.14Y-127.97
X178.506Y-70.629
X178.54Y-89.94
X178.66Y-62.88
X179.21Y-78.98
X179.253Y-73.533
X179.39Y-68.34
X180.27Y-32.504
X182.883Y-32.5
X183.704Y-101.204
X183.84Y-68.34
X184.143Y-55.23
X184.23Y-79.07
X184.263Y-90.453
X184.55Y-70.56
X184.56Y-76.47
X184.96Y-103.85
X185.04Y-117.19
X185.283Y-32.53
X185.3Y-38.39
X185.62Y-44.08
X186.38Y-64.58
X186.485Y-72.6
X186.61Y-52.25
X186.63Y-59.96
X186.65Y-57.39
X186.65Y-61.89
X187.0Y-77.1
X187.172Y-82.78
X187.623Y-68.973
X187.8Y-32.59
X188.74Y-90.55
X188.98Y-84.84
X189.55Y-71.52
X189.7Y-80.32
X189.719Y-36.31
X190.44Y-32.61
X190.8Y-149.13
X191.21Y-84.65
X192.28Y-33.22
X192.3Y-40.2
X192.45Y-93.13
X192.54Y-96.29
X192.84Y-82.2
X193.043Y-85.307
X193.23Y-61.02
X193.48Y-72.163
X193.93Y-56.777
X194.13Y-49.004
X194.135Y-36.31
X194.23Y-46.493
X194.37Y-96.85
X194.85Y-32.33
X194.926Y-54.18
X196.15Y-33.91
X198.03Y-32.22
X198.08Y-92.273
X198.48Y-115.33
X198.68Y-48.93
X198.89Y-84.74
X199.148Y-76.518
X199.9Y-134.5
X200.07Y-126.369
X200.42Y-87.34
X200.46Y-131.55
X200.54Y-32.67
X200.7Y-97.567
X200.87Y-92.99
X201.48Y-108.9
X201.96Y-40.187
X202.114Y-81.467
X202.522Y-66.233
X203.61Y-146.81
X203.717Y-32.62
X203.74Y-34.75
X203.86Y-77.73
X204.56Y-88.05
X204.632Y-94.9
X204.65Y-97.37
X205.657Y-32.54
X206.11Y-92.99
X207.09Y-42.75
X207.3Y-65.67
X207.86Y-52.99
X207.91Y-59.33
X208.09Y-32.65
X208.11Y-148.9
X208.209Y-76.848
X208.33Y-74.52
X208.353Y-50.29
X208.49Y-116.54
X209.07Y-82.89
X210.215Y-71.33
X210.22Y-105.12
X210.61Y-32.64
X210.99Y-109.41
X212.3Y-120.39
X212.55Y-45.28
X212.62Y-40.3
X213.485Y-80.34
X213.79Y-51.68
X213.81Y-47.74
X214.03Y-98.26
X214.23Y-117.77
X214.23Y-135.07
X214.25Y-124.86
X214.36Y-122.28
X214.81Y-92.9
X215.12Y-32.6
X215.26Y-83.85
X215.43Y-104.99
X215.81Y-61.24
X215.83Y-80.36
X215.96Y-77.66
X216.19Y-136.73
X216.19Y-144.43
X217.14Y-93.135
X217.21Y-64.21
X217.21Y-69.37
X217.59Y-32.76
X217.85Y-66.83
X218.41Y-77.89
X218.6Y-82.06
X219.243Y-94.713
X219.44Y-141.92
X219.76Y-92.34
X220.15Y-32.69
X221.07Y-80.81
X221.4Y-138.78
X221.83Y-99.53
X222.01Y-54.17
X222.23Y-75.23
X222.25Y-78.9
X222.71Y-32.67
X222.86Y-69.41
X222.94Y-71.88
X223.14Y-125.44
X223.33Y-45.36
X223.44Y-50.61
X223.54Y-80.81
X223.736Y-91.72
X224.89Y-131.83
X224.996Y-115.23
X225.025Y-111.98
X225.28Y-32.7
X225.84Y-57.97
X226.42Y-51.66
X226.46Y-49.04
X227.19Y-54.28
X227.79Y-64.94
X228.03Y-83.39
X228.35Y-60.46
X230.27Y-35.33
X230.28Y-30.88
X230.32Y-51.08
X231.31Y-105.18
X231.315Y-89.915
X231.42Y-87.98
X232.93Y-34.06
X233.324Y-107.55
X233.82Y-44.22
X235.1Y-109.41
X235.82Y-84.12
X236.29Y-63.56
X236.76Y-35.3
X237.62Y-96.28
X237.86Y-127.3
X238.08Y-44.073
X239.88Y-46.598
X239.98Y-50.227
X240.05Y-83.54
X240.1Y-85.9
X240.15Y-98.65
X240.58Y-66.37
X242.019Y-102.559
X245.93Y-98.6
X245.97Y-101.22
X246.79Y-74.3
X247.337Y-128.04
X248.24Y-47.93
X249.74Y-81.54
X249.95Y-38.55
X250.61Y-57.89
X251.28Y-51.07
X252.56Y-45.36
X252.57Y-128.0
T10
X48.26Y-74.93
X48.26Y-94.93
X96.012Y-92.811
X96.012Y-97.811
X96.012Y-102.717
X96.012Y-107.717
X106.012Y-95.25
X106.012Y-105.156
X109.22Y-67.31
X109.22Y-90.17
X123.51Y-29.972
X131.064Y-140.97
X131.13Y-134.62
X143.51Y-29.972
X151.064Y-140.97
X151.13Y-134.62
X199.9Y-121.2
X199.9Y-141.2
X205.74Y-80.264
X210.82Y-95.7
X225.044Y-41.656
X225.044Y-61.656
X225.74Y-80.264
X230.82Y-95.7
X248.92Y-41.402
X248.92Y-61.402
T11
X57.912Y-111.506
X57.912Y-114.046
X65.532Y-111.506
X65.532Y-114.046
X67.818Y-92.71
X75.438Y-92.71
X85.852Y-78.486
X93.472Y-78.486
T12
X245.949Y-133.019
X245.98Y-145.112
T13
X49.573Y-41.61
X88.435Y-41.61
T6
G00X96.266Y-29.626
M15
G01X96.266Y-27.626
M16
G05
G00X96.266Y-31.766
M15
G01X96.266Y-33.766
M16
G05
G00X105.918Y-31.766
M15
G01X105.918Y-33.766
M16
G05
G00X110.617Y-29.626
M15
G01X110.617Y-27.626
M16
G05
G00X110.617Y-31.766
M15
G01X110.617Y-33.766
M16
G05
G00X120.269Y-31.766
M15
G01X120.269Y-33.766
M16
G05
G00X241.808Y-32.242
M15
G01X241.808Y-30.242
M16
G05
G00X245.888Y-27.686
M15
G01X247.888Y-27.686
M16
G05
G00X245.888Y-34.798
M15
G01X247.888Y-34.798
M16
G05
G00X251.46Y-32.242
M15
G01X251.46Y-30.242
M16
G05
M30
